<?xml version="1.0" encoding="UTF-8" standalone="no"?>
<svg
   xmlns:dc="http://purl.org/dc/elements/1.1/"
   xmlns:cc="http://creativecommons.org/ns#"
   xmlns:rdf="http://www.w3.org/1999/02/22-rdf-syntax-ns#"
   xmlns:svg="http://www.w3.org/2000/svg"
   xmlns="http://www.w3.org/2000/svg"
   id="svg8"
   version="1.1"
   viewBox="0 0 41.249882 14.886269"
   height="14.886269mm"
   width="41.249882mm">
  <defs
     id="defs2">
    <clipPath
       clipPathUnits="userSpaceOnUse"
       id="clipPath3715">
      <path
         d="M 0,44.643 H 116.929 V 0 H 0 Z"
         id="path3713" />
    </clipPath>
  </defs>
  <metadata
     id="metadata5">
    <rdf:RDF>
      <cc:Work
         rdf:about="">
        <dc:format>image/svg+xml</dc:format>
        <dc:type
           rdf:resource="http://purl.org/dc/dcmitype/StillImage" />
        <dc:title></dc:title>
      </cc:Work>
    </rdf:RDF>
  </metadata>
  <g
     transform="translate(312.42256,-356.83663)"
     id="layer1">
    <g
       transform="matrix(0.35277777,0,0,-0.35277777,-305.73527,359.87302)"
       id="g3717">
      <path
         id="path3719"
         style="fill:#231f20;fill-opacity:1;fill-rule:nonzero;stroke:none"
         d="m 0,0 h 3.746 v -2.371 h 0.062 c 0.812,1.718 2.464,2.747 4.425,2.747 0.471,0 0.905,-0.094 1.343,-0.22 V -3.46 c -0.623,0.157 -1.214,0.281 -1.81,0.281 -3.523,0 -4.02,-2.965 -4.02,-3.775 v -8.012 H 0 Z" />
    </g>
    <g
       transform="matrix(0.35277777,0,0,-0.35277777,-295.48267,359.87302)"
       id="g3721">
      <path
         id="path3723"
         style="fill:#231f20;fill-opacity:1;fill-rule:nonzero;stroke:none"
         d="M 0,0 H 4.085 L 8.081,-10.476 H 8.138 L 12.164,0 h 3.832 L 10.101,-14.966 H 6.11 Z" />
    </g>
    <g
       transform="matrix(0.35277777,0,0,-0.35277777,-286.07793,365.15266)"
       id="g3725">
      <path
         id="path3727"
         style="fill:#231f20;fill-opacity:1;fill-rule:nonzero;stroke:none"
         d="m 0,0 h 3.365 v 8.608 c 0,2.117 0,6.734 -6.391,6.734 -2.369,0 -4.706,-0.719 -6.359,-2.401 l 1.964,-1.963 c 1.001,0.933 2.434,1.556 3.99,1.556 C -1.433,12.534 0,11.57 0,9.729 V 9.323 h -0.935 c -3.741,0 -9.417,-0.343 -9.417,-5.207 0,-2.962 2.682,-4.486 5.456,-4.486 1.999,0 3.742,0.747 4.802,2.429 H 0 Z m -0.217,5.864 c 0,-2.09 -1.216,-3.429 -3.771,-3.429 -1.221,0 -2.623,0.589 -2.623,1.963 0,2.151 3.558,2.305 5.615,2.305 h 0.779 V 5.864" />
    </g>
    <g
       transform="matrix(0.35277777,0,0,-0.35277777,-279.70863,365.15266)"
       id="g3729">
      <path
         id="path3731"
         style="fill:#231f20;fill-opacity:1;fill-rule:nonzero;stroke:none"
         d="M 0,0 H 3.557 V 23.573 H -0.188 V 13.064 h -0.091 c -0.783,0.971 -2.276,2.278 -5.085,2.278 -4.272,0 -7.228,-3.431 -7.228,-7.86 0,-4.426 2.769,-7.852 7.386,-7.852 2.087,0 4.053,0.808 5.144,2.617 H 0 Z m -8.856,7.482 c 0,2.342 1.655,4.493 4.398,4.493 2.741,0 4.396,-2.151 4.396,-4.493 0,-2.338 -1.655,-4.49 -4.396,-4.49 -2.743,0 -4.398,2.152 -4.398,4.49" />
    </g>
    <g
       transform="matrix(0.35277777,0,0,-0.35277777,-276.76202,357.28681)"
       id="g3733">
      <path
         id="path3735"
         style="fill:#231f20;fill-opacity:1;fill-rule:nonzero;stroke:none"
         d="m 0,0 c 1.376,0 2.435,-0.966 2.435,-2.247 0,-1.279 -1.059,-2.244 -2.435,-2.244 -1.37,0 -2.366,1.061 -2.366,2.244 C -2.366,-1.063 -1.37,0 0,0 m -1.838,-7.331 h 3.746 v -14.966 h -3.746 z" />
    </g>
    <g
       transform="matrix(0.35277777,0,0,-0.35277777,-272.21725,361.3355)"
       id="g3737">
      <path
         id="path3739"
         style="fill:#231f20;fill-opacity:1;fill-rule:nonzero;stroke:none"
         d="m 0,0 c -0.72,0.997 -1.656,1.527 -2.931,1.527 -1.001,0 -2.179,-0.465 -2.179,-1.589 0,-2.682 8.071,-0.5 8.071,-6.328 0,-3.558 -3.4,-4.8 -6.459,-4.8 -2.306,0 -4.299,0.588 -5.829,2.305 l 2.5,2.336 c 0.965,-1.059 1.965,-1.837 3.553,-1.837 1.092,0 2.496,0.528 2.496,1.713 0,3.086 -8.076,0.655 -8.076,6.362 0,3.336 2.992,4.832 6.013,4.832 1.993,0 4.117,-0.625 5.334,-2.277 z" />
    </g>
    <g
       transform="matrix(0.35277777,0,0,-0.35277777,-309.59483,364.09708)"
       id="g3741">
      <path
         id="path3743"
         style="fill:#231f20;fill-opacity:1;fill-rule:nonzero;stroke:none"
         d="m 0,0 c -2.745,0 -4.399,2.151 -4.399,4.49 0,2.342 1.654,4.492 4.399,4.492 2.741,0 4.398,-2.15 4.398,-4.492 C 4.398,2.151 2.741,0 0,0 m 0.749,12.35 c -2.09,0 -4.057,-0.813 -5.148,-2.621 h -0.063 v 2.245 H -8.016 V -8.842 h 3.743 v 7.754 h 0.094 c 0.782,-0.969 2.28,-2.274 5.082,-2.274 4.276,0 7.234,3.425 7.234,7.852 0,4.429 -2.777,7.86 -7.388,7.86" />
    </g>
    <g
       transform="matrix(0.35277777,0,0,-0.35277777,-298.06323,363.08852)"
       id="g3745">
      <path
         id="path3747"
         style="fill:#002b66;fill-opacity:1;fill-rule:nonzero;stroke:none"
         d="M 0,0 C -0.831,-1.28 -2.359,-1.369 -3.609,-0.326 -4.729,0.585 -5.06,2.237 -3.719,4.228 -2.354,6.255 0.967,5.833 2.604,4.043 4.186,2.396 4.109,-0.419 2.584,-2.499 0.307,-5.607 -4.44,-5.016 -6.758,-2.227 -8.45,-0.19 -8.721,3.202 -6.627,6.289 -4.38,9.601 0.365,9.817 3.423,7.907 7.736,5.323 8.532,-0.142 5.485,-4.569 2.514,-8.886 -3.601,-9.125 -7.72,-6.176 -12.439,-2.798 -12.748,3.802 -9.527,8.36 -6.014,13.332 0.754,13.889 5.655,10.731 6.721,10.044 5.694,8.478 4.614,9.141 0.393,11.729 -4.082,11.102 -6.85,8.546 -10.443,5.229 -11.064,-1.536 -6.62,-4.619 -2.829,-7.25 1.797,-6.676 4.097,-3.23 5.952,-0.45 5.985,3.856 2.998,5.916 0.021,7.969 -3.364,7.439 -4.964,5.34 -6.563,3.241 -6.845,-0.038 -4.559,-1.703 -2.647,-3.095 -0.077,-3.08 1.094,-1.313 2.169,0.311 2.138,2.173 0.933,3.002 -0.469,3.968 -1.786,3.893 -2.35,2.862 -2.88,1.893 -2.83,1.369 -2.294,1.06 c 0.38,-0.22 0.808,-0.124 1.058,0.413 0.2,0.43 0.615,0.668 1.039,0.454 C 0.434,1.61 0.634,0.978 0,0" />
    </g>
    <g
       transform="matrix(0.35277777,0,0,-0.35277777,-294.62072,368.50267)"
       id="g3749">
      <path
         id="path3751"
         style="fill:#002b66;fill-opacity:1;fill-rule:nonzero;stroke:none"
         d="M 0,0 V -3.586 H 3.751 V 0 H 5.586 V -8.95 H 3.751 v 3.973 H 0 V -8.95 H -1.834 V 0 Z" />
    </g>
    <g
       transform="matrix(0.35277777,0,0,-0.35277777,-291.50358,370.55182)"
       id="g3753">
      <path
         id="path3755"
         style="fill:#002b66;fill-opacity:1;fill-rule:nonzero;stroke:none"
         d="m 0,0 c -0.004,-0.397 0.036,-0.768 0.121,-1.11 0.165,-0.741 0.622,-1.109 1.371,-1.105 0.952,0.009 1.433,0.736 1.441,2.184 C 2.937,1.416 2.452,2.148 1.479,2.165 0.484,2.148 -0.008,1.427 0,0 M -1.454,1.436 C -1.327,1.808 -1.13,2.129 -0.863,2.4 -0.317,2.971 0.472,3.261 1.504,3.27 1.991,3.27 2.452,3.193 2.888,3.041 3.261,2.91 3.569,2.711 3.815,2.444 4.061,2.178 4.245,1.864 4.367,1.505 4.537,1.01 4.621,0.491 4.621,-0.051 4.617,-1.062 4.344,-1.855 3.803,-2.431 3.243,-3.023 2.465,-3.319 1.466,-3.319 c -0.977,0.004 -1.741,0.288 -2.291,0.85 -0.284,0.28 -0.491,0.614 -0.622,1.003 -0.161,0.453 -0.241,0.942 -0.241,1.466 0,0.513 0.078,0.99 0.234,1.436" />
    </g>
    <g
       transform="matrix(0.35277777,0,0,-0.35277777,-287.98547,370.12598)"
       id="g3757">
      <path
         id="path3759"
         style="fill:#002b66;fill-opacity:1;fill-rule:nonzero;stroke:none"
         d="M 0,0 C -0.072,0.626 -0.437,0.945 -1.092,0.958 -1.846,0.949 -2.279,0.459 -2.394,-0.515 -2.419,-0.696 -2.43,-0.899 -2.425,-1.124 c 0,-1.523 0.446,-2.289 1.339,-2.298 0.707,0.004 1.075,0.387 1.105,1.149 L 0.013,-2.096 H 1.707 L 1.701,-2.267 1.676,-2.629 C 1.582,-3.264 1.255,-3.754 0.691,-4.102 0.239,-4.385 -0.343,-4.526 -1.054,-4.526 c -1.024,-0.004 -1.797,0.292 -2.317,0.888 -0.495,0.575 -0.742,1.373 -0.742,2.394 -0.005,0.452 0.054,0.884 0.177,1.295 0.373,1.328 1.367,1.999 2.984,2.012 0.486,0 0.943,-0.085 1.371,-0.254 C 0.693,1.703 0.929,1.549 1.123,1.346 1.445,1.011 1.633,0.548 1.688,-0.045 L 1.707,-0.268 H 0.019 Z" />
    </g>
    <g
       transform="matrix(0.35277777,0,0,-0.35277777,-286.33733,368.49819)"
       id="g3761">
      <path
         id="path3763"
         style="fill:#002b66;fill-opacity:1;fill-rule:nonzero;stroke:none"
         d="m 0,0 v -3.688 l 0.076,0.14 c 0.097,0.173 0.214,0.321 0.349,0.444 0.398,0.369 0.929,0.552 1.594,0.552 0.351,0.004 0.683,-0.056 0.997,-0.183 0.249,-0.094 0.463,-0.236 0.64,-0.426 C 3.982,-3.5 4.168,-4.01 4.215,-4.69 L 4.234,-5.332 V -8.963 H 2.545 v 3.72 L 2.52,-4.817 C 2.418,-4.056 2.044,-3.669 1.396,-3.656 0.537,-3.682 0.074,-4.224 0.006,-5.281 L 0,-5.706 V -8.963 H -1.688 V 0 Z" />
    </g>
    <g
       transform="matrix(0.35277777,0,0,-0.35277777,-283.80932,370.96143)"
       id="g3765">
      <path
         id="path3767"
         style="fill:#002b66;fill-opacity:1;fill-rule:nonzero;stroke:none"
         d="m 0,0 0.045,-0.337 c 0.089,-0.477 0.453,-0.717 1.092,-0.717 0.283,0 0.524,0.062 0.723,0.184 0.258,0.152 0.385,0.36 0.381,0.623 C 2.229,-0.065 2.163,0.076 2.045,0.178 1.93,0.263 1.806,0.33 1.67,0.381 1.403,0.466 1.08,0.557 0.699,0.653 c -0.826,0.2 -1.388,0.45 -1.689,0.75 -0.317,0.313 -0.476,0.696 -0.476,1.149 0,0.478 0.171,0.872 0.515,1.18 0.215,0.204 0.45,0.354 0.704,0.451 0.428,0.166 0.903,0.248 1.429,0.248 0.406,0 0.795,-0.053 1.168,-0.159 C 3.166,4.039 3.608,3.502 3.676,2.659 L 3.688,2.45 H 2.076 L 2.031,2.749 C 1.947,3.142 1.65,3.335 1.143,3.326 0.479,3.317 0.146,3.098 0.146,2.666 0.146,2.476 0.254,2.332 0.471,2.234 0.614,2.162 0.769,2.105 0.934,2.063 L 1.911,1.784 C 2.187,1.703 2.442,1.618 2.68,1.53 2.891,1.449 3.081,1.348 3.25,1.226 3.661,0.916 3.862,0.486 3.854,-0.063 3.845,-0.753 3.54,-1.293 2.939,-1.683 2.448,-1.995 1.831,-2.154 1.086,-2.158 c -0.715,0 -1.32,0.143 -1.815,0.431 -0.576,0.339 -0.871,0.857 -0.882,1.556 V 0 Z" />
    </g>
    <g
       transform="matrix(0.35277777,0,0,-0.35277777,-280.59573,370.12598)"
       id="g3769">
      <path
         id="path3771"
         style="fill:#002b66;fill-opacity:1;fill-rule:nonzero;stroke:none"
         d="m 0,0 c -0.072,0.626 -0.436,0.945 -1.092,0.958 -0.753,-0.009 -1.187,-0.499 -1.301,-1.473 -0.025,-0.181 -0.036,-0.384 -0.032,-0.609 0,-1.523 0.446,-2.289 1.339,-2.298 0.707,0.004 1.075,0.387 1.106,1.149 L 0.013,-2.096 H 1.707 L 1.701,-2.267 1.676,-2.629 C 1.583,-3.264 1.255,-3.754 0.691,-4.102 0.239,-4.385 -0.343,-4.526 -1.054,-4.526 c -1.024,-0.004 -1.796,0.292 -2.317,0.888 -0.494,0.575 -0.742,1.373 -0.742,2.394 -0.004,0.452 0.054,0.884 0.177,1.295 0.373,1.328 1.368,1.999 2.984,2.012 0.486,0 0.943,-0.085 1.371,-0.254 C 0.694,1.703 0.929,1.549 1.123,1.346 1.445,1.011 1.634,0.548 1.688,-0.045 L 1.707,-0.268 H 0.02 Z" />
    </g>
    <g
       transform="matrix(0.35277777,0,0,-0.35277777,-278.94762,368.49819)"
       id="g3773">
      <path
         id="path3775"
         style="fill:#002b66;fill-opacity:1;fill-rule:nonzero;stroke:none"
         d="m 0,0 v -3.688 l 0.076,0.14 c 0.098,0.173 0.214,0.321 0.35,0.444 0.397,0.369 0.928,0.552 1.593,0.552 0.351,0.004 0.683,-0.056 0.997,-0.183 0.249,-0.094 0.463,-0.236 0.64,-0.426 C 3.982,-3.5 4.168,-4.01 4.215,-4.69 L 4.234,-5.332 V -8.963 H 2.545 v 3.72 L 2.52,-4.817 C 2.418,-4.056 2.044,-3.669 1.396,-3.656 0.537,-3.682 0.074,-4.224 0.006,-5.281 L 0,-5.706 V -8.963 H -1.688 V 0 Z" />
    </g>
    <g
       transform="matrix(0.35277777,0,0,-0.35277777,-276.31625,369.4611)"
       id="g3777">
      <path
         id="path3779"
         style="fill:#002b66;fill-opacity:1;fill-rule:nonzero;stroke:none"
         d="m 0,0 v -3.034 l 0.006,-0.425 0.013,-0.584 c 0.025,-0.424 0.143,-0.741 0.355,-0.953 0.182,-0.203 0.444,-0.307 0.787,-0.311 0.212,-0.004 0.413,0.038 0.603,0.127 0.465,0.191 0.719,0.686 0.761,1.486 l 0.02,0.54 V 0 H 4.233 V -6.233 H 2.596 v 0.907 L 2.311,-5.675 C 1.879,-6.161 1.292,-6.407 0.552,-6.411 -0.912,-6.424 -1.657,-5.66 -1.683,-4.119 l -0.006,0.824 V 0 Z" />
    </g>
    <path
       id="path3781"
       style="fill:#002b66;fill-opacity:1;fill-rule:nonzero;stroke:none;stroke-width:0.35277778"
       d="m -273.70308,371.6601 h -0.59549 v -3.16194 h 0.59549 z" />
    <g
       transform="matrix(0.35277777,0,0,-0.35277777,-271.7687,370.30995)"
       id="g3783">
      <path
         id="path3785"
         style="fill:#002b66;fill-opacity:1;fill-rule:nonzero;stroke:none"
         d="M 0,0 -0.019,0.261 C -0.091,1.073 -0.486,1.479 -1.205,1.479 -1.95,1.471 -2.371,1.048 -2.469,0.21 L -2.488,0 Z m -2.514,-1.459 c 0.009,-0.254 0.065,-0.493 0.166,-0.718 0.186,-0.469 0.556,-0.711 1.111,-0.723 0.673,-0.004 1.048,0.29 1.124,0.882 l 0.006,0.114 H 1.581 L 1.574,-2.063 C 1.537,-2.583 1.351,-2.991 1.016,-3.287 0.783,-3.499 0.523,-3.656 0.235,-3.758 c -0.453,-0.169 -0.928,-0.251 -1.428,-0.247 -0.418,-0.004 -0.822,0.053 -1.209,0.171 -0.387,0.119 -0.712,0.315 -0.975,0.591 -0.554,0.546 -0.833,1.369 -0.838,2.47 -0.004,1.041 0.248,1.844 0.756,2.412 0.563,0.63 1.34,0.945 2.33,0.945 C -0.706,2.58 -0.312,2.51 0.051,2.375 0.542,2.188 0.919,1.882 1.182,1.454 1.401,1.099 1.545,0.716 1.613,0.305 1.664,-0.017 1.689,-0.365 1.689,-0.742 L 1.683,-1.104 h -4.208 z" />
    </g>
  </g>
</svg>
